<?xml version="1.0" encoding="UTF-8" standalone="no"?>
<!DOCTYPE svg PUBLIC "-//W3C//DTD SVG 1.1//EN"
 "http://www.w3.org/Graphics/SVG/1.1/DTD/svg11.dtd">
<!-- Generated by graphviz version 2.40.1 (20161225.0304)
 -->
<!-- Title: %0 Pages: 1 -->
<svg width="14187pt" height="332pt"
 viewBox="0.00 0.00 14186.89 332.00" xmlns="http://www.w3.org/2000/svg" xmlns:xlink="http://www.w3.org/1999/xlink">
<g id="graph0" class="graph" transform="scale(1 1) rotate(0) translate(4 328)">
<title>%0</title>
<polygon fill="#ffffff" stroke="transparent" points="-4,4 -4,-328 14182.8852,-328 14182.8852,4 -4,4"/>
<!-- new_attendance_to_csv -->
<g id="node1" class="node">
<title>new_attendance_to_csv</title>
<ellipse fill="none" stroke="#000000" cx="1763.8678" cy="-234" rx="103.0559" ry="18"/>
<text text-anchor="middle" x="1763.8678" y="-229.8" font-family="Times,serif" font-size="14.00" fill="#000000">new_attendance_to_csv</text>
</g>
<!-- canonicalize_attendance_data -->
<g id="node18" class="node">
<title>canonicalize_attendance_data</title>
<ellipse fill="none" stroke="#000000" cx="3881.8678" cy="-162" rx="126.1444" ry="18"/>
<text text-anchor="middle" x="3881.8678" y="-157.8" font-family="Times,serif" font-size="14.00" fill="#000000">canonicalize_attendance_data</text>
</g>
<!-- new_attendance_to_csv&#45;&gt;canonicalize_attendance_data -->
<g id="edge1" class="edge">
<title>new_attendance_to_csv&#45;&gt;canonicalize_attendance_data</title>
<path fill="none" stroke="#000000" d="M1865.3098,-230.5515C2212.9308,-218.7344 3356.2113,-179.8693 3748.4181,-166.5365"/>
<polygon fill="#000000" stroke="#000000" points="3748.7977,-170.0257 3758.673,-166.1879 3748.5598,-163.0298 3748.7977,-170.0257"/>
</g>
<!-- ../data/raw/school_census_context_Jan20_Hard_Coded.xlsx.dvc -->
<g id="node2" class="node">
<title>../data/raw/school_census_context_Jan20_Hard_Coded.xlsx.dvc</title>
<ellipse fill="none" stroke="#000000" cx="7153.8678" cy="-306" rx="259.8113" ry="18"/>
<text text-anchor="middle" x="7153.8678" y="-301.8" font-family="Times,serif" font-size="14.00" fill="#000000">../data/raw/school_census_context_Jan20_Hard_Coded.xlsx.dvc</text>
</g>
<!-- census_data_to_csv -->
<g id="node28" class="node">
<title>census_data_to_csv</title>
<ellipse fill="none" stroke="#000000" cx="6615.8678" cy="-234" rx="87.9645" ry="18"/>
<text text-anchor="middle" x="6615.8678" y="-229.8" font-family="Times,serif" font-size="14.00" fill="#000000">census_data_to_csv</text>
</g>
<!-- ../data/raw/school_census_context_Jan20_Hard_Coded.xlsx.dvc&#45;&gt;census_data_to_csv -->
<g id="edge2" class="edge">
<title>../data/raw/school_census_context_Jan20_Hard_Coded.xlsx.dvc&#45;&gt;census_data_to_csv</title>
<path fill="none" stroke="#000000" d="M7034.1341,-289.9762C6932.6177,-276.3903 6789.6008,-257.2505 6699.8617,-245.2408"/>
<polygon fill="#000000" stroke="#000000" points="6700.105,-241.7423 6689.7291,-243.8848 6699.1764,-248.6804 6700.105,-241.7423"/>
</g>
<!-- annotate_attendance_data -->
<g id="node3" class="node">
<title>annotate_attendance_data</title>
<ellipse fill="none" stroke="#000000" cx="6312.8678" cy="-90" rx="110.557" ry="18"/>
<text text-anchor="middle" x="6312.8678" y="-85.8" font-family="Times,serif" font-size="14.00" fill="#000000">annotate_attendance_data</text>
</g>
<!-- merge_attendance_data -->
<g id="node22" class="node">
<title>merge_attendance_data</title>
<ellipse fill="none" stroke="#000000" cx="6312.8678" cy="-18" rx="102.3888" ry="18"/>
<text text-anchor="middle" x="6312.8678" y="-13.8" font-family="Times,serif" font-size="14.00" fill="#000000">merge_attendance_data</text>
</g>
<!-- annotate_attendance_data&#45;&gt;merge_attendance_data -->
<g id="edge3" class="edge">
<title>annotate_attendance_data&#45;&gt;merge_attendance_data</title>
<path fill="none" stroke="#000000" d="M6312.8678,-71.8314C6312.8678,-64.131 6312.8678,-54.9743 6312.8678,-46.4166"/>
<polygon fill="#000000" stroke="#000000" points="6316.3679,-46.4132 6312.8678,-36.4133 6309.3679,-46.4133 6316.3679,-46.4132"/>
</g>
<!-- ../data/raw/NEET_MI_Feb19_with_YPID_to_Warwick.xlsx.dvc -->
<g id="node4" class="node">
<title>../data/raw/NEET_MI_Feb19_with_YPID_to_Warwick.xlsx.dvc</title>
<ellipse fill="none" stroke="#000000" cx="9216.8678" cy="-306" rx="261.5289" ry="18"/>
<text text-anchor="middle" x="9216.8678" y="-301.8" font-family="Times,serif" font-size="14.00" fill="#000000">../data/raw/NEET_MI_Feb19_with_YPID_to_Warwick.xlsx.dvc</text>
</g>
<!-- new_neet_to_csv -->
<g id="node10" class="node">
<title>new_neet_to_csv</title>
<ellipse fill="none" stroke="#000000" cx="9757.8678" cy="-234" rx="78.154" ry="18"/>
<text text-anchor="middle" x="9757.8678" y="-229.8" font-family="Times,serif" font-size="14.00" fill="#000000">new_neet_to_csv</text>
</g>
<!-- ../data/raw/NEET_MI_Feb19_with_YPID_to_Warwick.xlsx.dvc&#45;&gt;new_neet_to_csv -->
<g id="edge4" class="edge">
<title>../data/raw/NEET_MI_Feb19_with_YPID_to_Warwick.xlsx.dvc&#45;&gt;new_neet_to_csv</title>
<path fill="none" stroke="#000000" d="M9337.2692,-289.9762C9441.9,-276.0512 9590.3723,-256.2915 9680.0619,-244.3549"/>
<polygon fill="#000000" stroke="#000000" points="9680.7131,-247.7992 9690.1639,-243.0105 9679.7896,-240.8604 9680.7131,-247.7992"/>
</g>
<!-- ../data/raw/school_census_attendance_Aut21_Hard_Coded.xlsx.dvc -->
<g id="node5" class="node">
<title>../data/raw/school_census_attendance_Aut21_Hard_Coded.xlsx.dvc</title>
<ellipse fill="none" stroke="#000000" cx="3311.8678" cy="-306" rx="274.257" ry="18"/>
<text text-anchor="middle" x="3311.8678" y="-301.8" font-family="Times,serif" font-size="14.00" fill="#000000">../data/raw/school_census_attendance_Aut21_Hard_Coded.xlsx.dvc</text>
</g>
<!-- old_attendance_to_csv -->
<g id="node45" class="node">
<title>old_attendance_to_csv</title>
<ellipse fill="none" stroke="#000000" cx="3881.8678" cy="-234" rx="99.5636" ry="18"/>
<text text-anchor="middle" x="3881.8678" y="-229.8" font-family="Times,serif" font-size="14.00" fill="#000000">old_attendance_to_csv</text>
</g>
<!-- ../data/raw/school_census_attendance_Aut21_Hard_Coded.xlsx.dvc&#45;&gt;old_attendance_to_csv -->
<g id="edge5" class="edge">
<title>../data/raw/school_census_attendance_Aut21_Hard_Coded.xlsx.dvc&#45;&gt;old_attendance_to_csv</title>
<path fill="none" stroke="#000000" d="M3438.3693,-290.0209C3544.8551,-276.57 3694.6261,-257.6516 3789.9672,-245.6085"/>
<polygon fill="#000000" stroke="#000000" points="3790.6851,-249.0457 3800.1676,-244.32 3789.8078,-242.1009 3790.6851,-249.0457"/>
</g>
<!-- ../data/raw/NEET_MI_Feb22_with_YPID_to_Warwick.xlsx.dvc -->
<g id="node6" class="node">
<title>../data/raw/NEET_MI_Feb22_with_YPID_to_Warwick.xlsx.dvc</title>
<ellipse fill="none" stroke="#000000" cx="9757.8678" cy="-306" rx="261.5289" ry="18"/>
<text text-anchor="middle" x="9757.8678" y="-301.8" font-family="Times,serif" font-size="14.00" fill="#000000">../data/raw/NEET_MI_Feb22_with_YPID_to_Warwick.xlsx.dvc</text>
</g>
<!-- ../data/raw/NEET_MI_Feb22_with_YPID_to_Warwick.xlsx.dvc&#45;&gt;new_neet_to_csv -->
<g id="edge6" class="edge">
<title>../data/raw/NEET_MI_Feb22_with_YPID_to_Warwick.xlsx.dvc&#45;&gt;new_neet_to_csv</title>
<path fill="none" stroke="#000000" d="M9757.8678,-287.8314C9757.8678,-280.131 9757.8678,-270.9743 9757.8678,-262.4166"/>
<polygon fill="#000000" stroke="#000000" points="9761.3679,-262.4132 9757.8678,-252.4133 9754.3679,-262.4133 9761.3679,-262.4132"/>
</g>
<!-- ../data/raw/KS4_2019_Hard_Coded.csv.dvc -->
<g id="node7" class="node">
<title>../data/raw/KS4_2019_Hard_Coded.csv.dvc</title>
<ellipse fill="none" stroke="#000000" cx="10035.8678" cy="-234" rx="181.6969" ry="18"/>
<text text-anchor="middle" x="10035.8678" y="-229.8" font-family="Times,serif" font-size="14.00" fill="#000000">../data/raw/KS4_2019_Hard_Coded.csv.dvc</text>
</g>
<!-- canonicalize_ks4_data -->
<g id="node46" class="node">
<title>canonicalize_ks4_data</title>
<ellipse fill="none" stroke="#000000" cx="10606.8678" cy="-162" rx="98.3966" ry="18"/>
<text text-anchor="middle" x="10606.8678" y="-157.8" font-family="Times,serif" font-size="14.00" fill="#000000">canonicalize_ks4_data</text>
</g>
<!-- ../data/raw/KS4_2019_Hard_Coded.csv.dvc&#45;&gt;canonicalize_ks4_data -->
<g id="edge7" class="edge">
<title>../data/raw/KS4_2019_Hard_Coded.csv.dvc&#45;&gt;canonicalize_ks4_data</title>
<path fill="none" stroke="#000000" d="M10148.3382,-219.8181C10255.7647,-206.2722 10415.6687,-186.1092 10515.4696,-173.5248"/>
<polygon fill="#000000" stroke="#000000" points="10516.0514,-176.9793 10525.5349,-172.2556 10515.1756,-170.0343 10516.0514,-176.9793"/>
</g>
<!-- ../data/raw/school_census_context_Jan19_Hard_Coded.xlsx.dvc -->
<g id="node8" class="node">
<title>../data/raw/school_census_context_Jan19_Hard_Coded.xlsx.dvc</title>
<ellipse fill="none" stroke="#000000" cx="7691.8678" cy="-306" rx="259.8113" ry="18"/>
<text text-anchor="middle" x="7691.8678" y="-301.8" font-family="Times,serif" font-size="14.00" fill="#000000">../data/raw/school_census_context_Jan19_Hard_Coded.xlsx.dvc</text>
</g>
<!-- ../data/raw/school_census_context_Jan19_Hard_Coded.xlsx.dvc&#45;&gt;census_data_to_csv -->
<g id="edge8" class="edge">
<title>../data/raw/school_census_context_Jan19_Hard_Coded.xlsx.dvc&#45;&gt;census_data_to_csv</title>
<path fill="none" stroke="#000000" d="M7504.7503,-293.4791C7272.8333,-277.9605 6886.6317,-252.118 6709.6566,-240.2758"/>
<polygon fill="#000000" stroke="#000000" points="6709.8005,-236.7777 6699.5891,-239.6022 6709.3331,-243.7621 6709.8005,-236.7777"/>
</g>
<!-- ../data/raw/FEB18_NEET_MI.xlsx.dvc -->
<g id="node9" class="node">
<title>../data/raw/FEB18_NEET_MI.xlsx.dvc</title>
<ellipse fill="none" stroke="#000000" cx="12363.8678" cy="-306" rx="162.6663" ry="18"/>
<text text-anchor="middle" x="12363.8678" y="-301.8" font-family="Times,serif" font-size="14.00" fill="#000000">../data/raw/FEB18_NEET_MI.xlsx.dvc</text>
</g>
<!-- canonicalize_neet_data -->
<g id="node42" class="node">
<title>canonicalize_neet_data</title>
<ellipse fill="none" stroke="#000000" cx="9085.8678" cy="-162" rx="101.2428" ry="18"/>
<text text-anchor="middle" x="9085.8678" y="-157.8" font-family="Times,serif" font-size="14.00" fill="#000000">canonicalize_neet_data</text>
</g>
<!-- new_neet_to_csv&#45;&gt;canonicalize_neet_data -->
<g id="edge9" class="edge">
<title>new_neet_to_csv&#45;&gt;canonicalize_neet_data</title>
<path fill="none" stroke="#000000" d="M9686.9055,-226.3969C9565.8615,-213.4279 9319.3352,-187.0144 9182.6186,-172.3662"/>
<polygon fill="#000000" stroke="#000000" points="9182.8806,-168.8743 9172.5646,-171.2889 9182.1348,-175.8344 9182.8806,-168.8743"/>
</g>
<!-- ../data/raw/FEB22_NEET_MI.xlsx.dvc -->
<g id="node11" class="node">
<title>../data/raw/FEB22_NEET_MI.xlsx.dvc</title>
<ellipse fill="none" stroke="#000000" cx="12707.8678" cy="-306" rx="162.6663" ry="18"/>
<text text-anchor="middle" x="12707.8678" y="-301.8" font-family="Times,serif" font-size="14.00" fill="#000000">../data/raw/FEB22_NEET_MI.xlsx.dvc</text>
</g>
<!-- ../data/raw/school_census_context_Jan17_Hard_Coded.xlsx.dvc -->
<g id="node12" class="node">
<title>../data/raw/school_census_context_Jan17_Hard_Coded.xlsx.dvc</title>
<ellipse fill="none" stroke="#000000" cx="5001.8678" cy="-306" rx="259.8113" ry="18"/>
<text text-anchor="middle" x="5001.8678" y="-301.8" font-family="Times,serif" font-size="14.00" fill="#000000">../data/raw/school_census_context_Jan17_Hard_Coded.xlsx.dvc</text>
</g>
<!-- ../data/raw/school_census_context_Jan17_Hard_Coded.xlsx.dvc&#45;&gt;census_data_to_csv -->
<g id="edge10" class="edge">
<title>../data/raw/school_census_context_Jan17_Hard_Coded.xlsx.dvc&#45;&gt;census_data_to_csv</title>
<path fill="none" stroke="#000000" d="M5184.149,-293.1423C5213.1498,-291.2871 5242.8245,-289.5009 5270.8678,-288 5738.0503,-262.9954 6297.0832,-244.075 6518.6004,-237.0146"/>
<polygon fill="#000000" stroke="#000000" points="6519.0083,-240.5035 6528.892,-236.6873 6518.7858,-233.507 6519.0083,-240.5035"/>
</g>
<!-- ../data/raw/NEET_MI_Feb18_with_YPID_to_Warwick.xlsx.dvc -->
<g id="node13" class="node">
<title>../data/raw/NEET_MI_Feb18_with_YPID_to_Warwick.xlsx.dvc</title>
<ellipse fill="none" stroke="#000000" cx="10298.8678" cy="-306" rx="261.5289" ry="18"/>
<text text-anchor="middle" x="10298.8678" y="-301.8" font-family="Times,serif" font-size="14.00" fill="#000000">../data/raw/NEET_MI_Feb18_with_YPID_to_Warwick.xlsx.dvc</text>
</g>
<!-- ../data/raw/NEET_MI_Feb18_with_YPID_to_Warwick.xlsx.dvc&#45;&gt;new_neet_to_csv -->
<g id="edge11" class="edge">
<title>../data/raw/NEET_MI_Feb18_with_YPID_to_Warwick.xlsx.dvc&#45;&gt;new_neet_to_csv</title>
<path fill="none" stroke="#000000" d="M10147.5978,-291.2857C10059.094,-281.86 9945.3465,-268.3392 9844.8678,-252 9838.3215,-250.9355 9831.5197,-249.7207 9824.733,-248.4362"/>
<polygon fill="#000000" stroke="#000000" points="9825.3159,-244.9841 9814.8321,-246.5138 9823.9816,-251.8558 9825.3159,-244.9841"/>
</g>
<!-- annotate_census_data -->
<g id="node14" class="node">
<title>annotate_census_data</title>
<ellipse fill="none" stroke="#000000" cx="7791.8678" cy="-90" rx="95.4675" ry="18"/>
<text text-anchor="middle" x="7791.8678" y="-85.8" font-family="Times,serif" font-size="14.00" fill="#000000">annotate_census_data</text>
</g>
<!-- merge_census_data -->
<g id="node52" class="node">
<title>merge_census_data</title>
<ellipse fill="none" stroke="#000000" cx="7791.8678" cy="-18" rx="86.7991" ry="18"/>
<text text-anchor="middle" x="7791.8678" y="-13.8" font-family="Times,serif" font-size="14.00" fill="#000000">merge_census_data</text>
</g>
<!-- annotate_census_data&#45;&gt;merge_census_data -->
<g id="edge12" class="edge">
<title>annotate_census_data&#45;&gt;merge_census_data</title>
<path fill="none" stroke="#000000" d="M7791.8678,-71.8314C7791.8678,-64.131 7791.8678,-54.9743 7791.8678,-46.4166"/>
<polygon fill="#000000" stroke="#000000" points="7795.3679,-46.4132 7791.8678,-36.4133 7788.3679,-46.4133 7795.3679,-46.4132"/>
</g>
<!-- merge_neet_data -->
<g id="node15" class="node">
<title>merge_neet_data</title>
<ellipse fill="none" stroke="#000000" cx="8634.8678" cy="-18" rx="76.9869" ry="18"/>
<text text-anchor="middle" x="8634.8678" y="-13.8" font-family="Times,serif" font-size="14.00" fill="#000000">merge_neet_data</text>
</g>
<!-- ../data/raw/NEET_MI_Feb17_with_YPID_to_Warwick.xlsx.dvc -->
<g id="node16" class="node">
<title>../data/raw/NEET_MI_Feb17_with_YPID_to_Warwick.xlsx.dvc</title>
<ellipse fill="none" stroke="#000000" cx="10839.8678" cy="-306" rx="261.5289" ry="18"/>
<text text-anchor="middle" x="10839.8678" y="-301.8" font-family="Times,serif" font-size="14.00" fill="#000000">../data/raw/NEET_MI_Feb17_with_YPID_to_Warwick.xlsx.dvc</text>
</g>
<!-- ../data/raw/NEET_MI_Feb17_with_YPID_to_Warwick.xlsx.dvc&#45;&gt;new_neet_to_csv -->
<g id="edge13" class="edge">
<title>../data/raw/NEET_MI_Feb17_with_YPID_to_Warwick.xlsx.dvc&#45;&gt;new_neet_to_csv</title>
<path fill="none" stroke="#000000" d="M10655.0754,-293.2629C10626.5484,-291.4174 10597.4215,-289.6024 10569.8678,-288 10247.7928,-269.2692 10164.8963,-292.8038 9844.8678,-252 9837.8202,-251.1014 9830.4921,-249.9435 9823.2126,-248.6485"/>
<polygon fill="#000000" stroke="#000000" points="9823.8192,-245.2014 9813.3471,-246.8093 9822.5362,-252.0828 9823.8192,-245.2014"/>
</g>
<!-- annotate_neet_data -->
<g id="node17" class="node">
<title>annotate_neet_data</title>
<ellipse fill="none" stroke="#000000" cx="8634.8678" cy="-90" rx="85.6551" ry="18"/>
<text text-anchor="middle" x="8634.8678" y="-85.8" font-family="Times,serif" font-size="14.00" fill="#000000">annotate_neet_data</text>
</g>
<!-- annotate_neet_data&#45;&gt;merge_neet_data -->
<g id="edge14" class="edge">
<title>annotate_neet_data&#45;&gt;merge_neet_data</title>
<path fill="none" stroke="#000000" d="M8634.8678,-71.8314C8634.8678,-64.131 8634.8678,-54.9743 8634.8678,-46.4166"/>
<polygon fill="#000000" stroke="#000000" points="8638.3679,-46.4132 8634.8678,-36.4133 8631.3679,-46.4133 8638.3679,-46.4132"/>
</g>
<!-- canonicalize_attendance_data&#45;&gt;annotate_attendance_data -->
<g id="edge15" class="edge">
<title>canonicalize_attendance_data&#45;&gt;annotate_attendance_data</title>
<path fill="none" stroke="#000000" d="M4005.7636,-158.3305C4424.2378,-145.9364 5782.0124,-105.7226 6193.5514,-93.5338"/>
<polygon fill="#000000" stroke="#000000" points="6193.7935,-97.0283 6203.6855,-93.2337 6193.5862,-90.0314 6193.7935,-97.0283"/>
</g>
<!-- ../data/raw/KS4_2016_Hard_Coded.csv.dvc -->
<g id="node19" class="node">
<title>../data/raw/KS4_2016_Hard_Coded.csv.dvc</title>
<ellipse fill="none" stroke="#000000" cx="10416.8678" cy="-234" rx="181.6969" ry="18"/>
<text text-anchor="middle" x="10416.8678" y="-229.8" font-family="Times,serif" font-size="14.00" fill="#000000">../data/raw/KS4_2016_Hard_Coded.csv.dvc</text>
</g>
<!-- ../data/raw/KS4_2016_Hard_Coded.csv.dvc&#45;&gt;canonicalize_ks4_data -->
<g id="edge16" class="edge">
<title>../data/raw/KS4_2016_Hard_Coded.csv.dvc&#45;&gt;canonicalize_ks4_data</title>
<path fill="none" stroke="#000000" d="M10462.8615,-216.5708C10490.4897,-206.1012 10525.7329,-192.7459 10554.4384,-181.868"/>
<polygon fill="#000000" stroke="#000000" points="10555.7914,-185.0982 10563.9023,-178.2817 10553.3109,-178.5524 10555.7914,-185.0982"/>
</g>
<!-- ../data/raw/KS4_2015_Hard_Coded.csv.dvc -->
<g id="node20" class="node">
<title>../data/raw/KS4_2015_Hard_Coded.csv.dvc</title>
<ellipse fill="none" stroke="#000000" cx="10797.8678" cy="-234" rx="181.6969" ry="18"/>
<text text-anchor="middle" x="10797.8678" y="-229.8" font-family="Times,serif" font-size="14.00" fill="#000000">../data/raw/KS4_2015_Hard_Coded.csv.dvc</text>
</g>
<!-- ../data/raw/KS4_2015_Hard_Coded.csv.dvc&#45;&gt;canonicalize_ks4_data -->
<g id="edge17" class="edge">
<title>../data/raw/KS4_2015_Hard_Coded.csv.dvc&#45;&gt;canonicalize_ks4_data</title>
<path fill="none" stroke="#000000" d="M10751.6321,-216.5708C10723.8585,-206.1012 10688.4298,-192.7459 10659.5732,-181.868"/>
<polygon fill="#000000" stroke="#000000" points="10660.6514,-178.5341 10650.0595,-178.2817 10658.1822,-185.0841 10660.6514,-178.5341"/>
</g>
<!-- ../data/raw/Attendance_Oct18&#45;Jan20_to_Warwick.xlsx.dvc -->
<g id="node21" class="node">
<title>../data/raw/Attendance_Oct18&#45;Jan20_to_Warwick.xlsx.dvc</title>
<ellipse fill="none" stroke="#000000" cx="1763.8678" cy="-306" rx="240.0787" ry="18"/>
<text text-anchor="middle" x="1763.8678" y="-301.8" font-family="Times,serif" font-size="14.00" fill="#000000">../data/raw/Attendance_Oct18&#45;Jan20_to_Warwick.xlsx.dvc</text>
</g>
<!-- ../data/raw/Attendance_Oct18&#45;Jan20_to_Warwick.xlsx.dvc&#45;&gt;new_attendance_to_csv -->
<g id="edge18" class="edge">
<title>../data/raw/Attendance_Oct18&#45;Jan20_to_Warwick.xlsx.dvc&#45;&gt;new_attendance_to_csv</title>
<path fill="none" stroke="#000000" d="M1763.8678,-287.8314C1763.8678,-280.131 1763.8678,-270.9743 1763.8678,-262.4166"/>
<polygon fill="#000000" stroke="#000000" points="1767.3679,-262.4132 1763.8678,-252.4133 1760.3679,-262.4133 1767.3679,-262.4132"/>
</g>
<!-- ../data/raw/Bucks_Secondary_School_2022.xlsx.dvc -->
<g id="node23" class="node">
<title>../data/raw/Bucks_Secondary_School_2022.xlsx.dvc</title>
<ellipse fill="none" stroke="#000000" cx="8184.8678" cy="-306" rx="214.7256" ry="18"/>
<text text-anchor="middle" x="8184.8678" y="-301.8" font-family="Times,serif" font-size="14.00" fill="#000000">../data/raw/Bucks_Secondary_School_2022.xlsx.dvc</text>
</g>
<!-- school_info_to_csv -->
<g id="node37" class="node">
<title>school_info_to_csv</title>
<ellipse fill="none" stroke="#000000" cx="8184.8678" cy="-234" rx="86.8436" ry="18"/>
<text text-anchor="middle" x="8184.8678" y="-229.8" font-family="Times,serif" font-size="14.00" fill="#000000">school_info_to_csv</text>
</g>
<!-- ../data/raw/Bucks_Secondary_School_2022.xlsx.dvc&#45;&gt;school_info_to_csv -->
<g id="edge19" class="edge">
<title>../data/raw/Bucks_Secondary_School_2022.xlsx.dvc&#45;&gt;school_info_to_csv</title>
<path fill="none" stroke="#000000" d="M8184.8678,-287.8314C8184.8678,-280.131 8184.8678,-270.9743 8184.8678,-262.4166"/>
<polygon fill="#000000" stroke="#000000" points="8188.3679,-262.4132 8184.8678,-252.4133 8181.3679,-262.4133 8188.3679,-262.4132"/>
</g>
<!-- ../data/raw/NEET_MI_Feb16_with_YPID_to_Warwick.xlsx.dvc -->
<g id="node24" class="node">
<title>../data/raw/NEET_MI_Feb16_with_YPID_to_Warwick.xlsx.dvc</title>
<ellipse fill="none" stroke="#000000" cx="11380.8678" cy="-306" rx="261.5289" ry="18"/>
<text text-anchor="middle" x="11380.8678" y="-301.8" font-family="Times,serif" font-size="14.00" fill="#000000">../data/raw/NEET_MI_Feb16_with_YPID_to_Warwick.xlsx.dvc</text>
</g>
<!-- ../data/raw/NEET_MI_Feb16_with_YPID_to_Warwick.xlsx.dvc&#45;&gt;new_neet_to_csv -->
<g id="edge20" class="edge">
<title>../data/raw/NEET_MI_Feb16_with_YPID_to_Warwick.xlsx.dvc&#45;&gt;new_neet_to_csv</title>
<path fill="none" stroke="#000000" d="M11199.7416,-292.9702C11170.0546,-291.1091 11139.61,-289.3662 11110.8678,-288 10548.6086,-261.2736 10403.9645,-317.2742 9844.8678,-252 9837.7057,-251.1638 9830.2581,-250.0328 9822.8681,-248.7424"/>
<polygon fill="#000000" stroke="#000000" points="9823.3277,-245.2682 9812.8587,-246.8968 9822.0583,-252.1522 9823.3277,-245.2682"/>
</g>
<!-- ../data/raw/school_census_context_Jan18_Hard_Coded.xlsx.dvc -->
<g id="node25" class="node">
<title>../data/raw/school_census_context_Jan18_Hard_Coded.xlsx.dvc</title>
<ellipse fill="none" stroke="#000000" cx="5539.8678" cy="-306" rx="259.8113" ry="18"/>
<text text-anchor="middle" x="5539.8678" y="-301.8" font-family="Times,serif" font-size="14.00" fill="#000000">../data/raw/school_census_context_Jan18_Hard_Coded.xlsx.dvc</text>
</g>
<!-- ../data/raw/school_census_context_Jan18_Hard_Coded.xlsx.dvc&#45;&gt;census_data_to_csv -->
<g id="edge21" class="edge">
<title>../data/raw/school_census_context_Jan18_Hard_Coded.xlsx.dvc&#45;&gt;census_data_to_csv</title>
<path fill="none" stroke="#000000" d="M5726.9854,-293.4791C5958.9023,-277.9605 6345.1039,-252.118 6522.0791,-240.2758"/>
<polygon fill="#000000" stroke="#000000" points="6522.4026,-243.7621 6532.1466,-239.6022 6521.9352,-236.7777 6522.4026,-243.7621"/>
</g>
<!-- ../data/raw/NEET_MI_Feb21_with_YPID_to_Warwick.xlsx.dvc -->
<g id="node26" class="node">
<title>../data/raw/NEET_MI_Feb21_with_YPID_to_Warwick.xlsx.dvc</title>
<ellipse fill="none" stroke="#000000" cx="11921.8678" cy="-306" rx="261.5289" ry="18"/>
<text text-anchor="middle" x="11921.8678" y="-301.8" font-family="Times,serif" font-size="14.00" fill="#000000">../data/raw/NEET_MI_Feb21_with_YPID_to_Warwick.xlsx.dvc</text>
</g>
<!-- ../data/raw/NEET_MI_Feb21_with_YPID_to_Warwick.xlsx.dvc&#45;&gt;new_neet_to_csv -->
<g id="edge22" class="edge">
<title>../data/raw/NEET_MI_Feb21_with_YPID_to_Warwick.xlsx.dvc&#45;&gt;new_neet_to_csv</title>
<path fill="none" stroke="#000000" d="M11742.5679,-292.8704C11712.3065,-290.9918 11681.2023,-289.2693 11651.8678,-288 11250.6081,-270.6371 10243.988,-296.8768 9844.8678,-252 9837.7022,-251.1943 9830.2524,-250.0826 9822.8611,-248.8035"/>
<polygon fill="#000000" stroke="#000000" points="9823.3177,-245.329 9812.8505,-246.9686 9822.0556,-252.2143 9823.3177,-245.329"/>
</g>
<!-- ../data/raw/FEB19_NEET_MI.xlsx.dvc -->
<g id="node27" class="node">
<title>../data/raw/FEB19_NEET_MI.xlsx.dvc</title>
<ellipse fill="none" stroke="#000000" cx="13051.8678" cy="-306" rx="162.6663" ry="18"/>
<text text-anchor="middle" x="13051.8678" y="-301.8" font-family="Times,serif" font-size="14.00" fill="#000000">../data/raw/FEB19_NEET_MI.xlsx.dvc</text>
</g>
<!-- canonicalize_census_data -->
<g id="node33" class="node">
<title>canonicalize_census_data</title>
<ellipse fill="none" stroke="#000000" cx="7007.8678" cy="-162" rx="110.555" ry="18"/>
<text text-anchor="middle" x="7007.8678" y="-157.8" font-family="Times,serif" font-size="14.00" fill="#000000">canonicalize_census_data</text>
</g>
<!-- census_data_to_csv&#45;&gt;canonicalize_census_data -->
<g id="edge23" class="edge">
<title>census_data_to_csv&#45;&gt;canonicalize_census_data</title>
<path fill="none" stroke="#000000" d="M6681.4798,-221.9488C6748.1963,-209.6948 6851.8007,-190.6654 6924.339,-177.342"/>
<polygon fill="#000000" stroke="#000000" points="6925.158,-180.7502 6934.3612,-175.5012 6923.8934,-173.8654 6925.158,-180.7502"/>
</g>
<!-- ../data/raw/Attendance_Oct20&#45;May22_to_Warwick.xlsx.dvc -->
<g id="node29" class="node">
<title>../data/raw/Attendance_Oct20&#45;May22_to_Warwick.xlsx.dvc</title>
<ellipse fill="none" stroke="#000000" cx="2266.8678" cy="-306" rx="244.7357" ry="18"/>
<text text-anchor="middle" x="2266.8678" y="-301.8" font-family="Times,serif" font-size="14.00" fill="#000000">../data/raw/Attendance_Oct20&#45;May22_to_Warwick.xlsx.dvc</text>
</g>
<!-- ../data/raw/Attendance_Oct20&#45;May22_to_Warwick.xlsx.dvc&#45;&gt;new_attendance_to_csv -->
<g id="edge24" class="edge">
<title>../data/raw/Attendance_Oct20&#45;May22_to_Warwick.xlsx.dvc&#45;&gt;new_attendance_to_csv</title>
<path fill="none" stroke="#000000" d="M2154.9235,-289.9762C2064.2374,-276.9952 1938.129,-258.9439 1853.8933,-246.8864"/>
<polygon fill="#000000" stroke="#000000" points="1854.2285,-243.3987 1843.8335,-245.4464 1853.2366,-250.3281 1854.2285,-243.3987"/>
</g>
<!-- ../data/raw/KS4_2018_Hard_Coded.csv.dvc -->
<g id="node30" class="node">
<title>../data/raw/KS4_2018_Hard_Coded.csv.dvc</title>
<ellipse fill="none" stroke="#000000" cx="11178.8678" cy="-234" rx="181.6969" ry="18"/>
<text text-anchor="middle" x="11178.8678" y="-229.8" font-family="Times,serif" font-size="14.00" fill="#000000">../data/raw/KS4_2018_Hard_Coded.csv.dvc</text>
</g>
<!-- ../data/raw/KS4_2018_Hard_Coded.csv.dvc&#45;&gt;canonicalize_ks4_data -->
<g id="edge25" class="edge">
<title>../data/raw/KS4_2018_Hard_Coded.csv.dvc&#45;&gt;canonicalize_ks4_data</title>
<path fill="none" stroke="#000000" d="M11066.2005,-219.8181C10958.5858,-206.2722 10798.4018,-186.1092 10698.4261,-173.5248"/>
<polygon fill="#000000" stroke="#000000" points="10698.7021,-170.032 10688.3432,-172.2556 10697.8278,-176.9772 10698.7021,-170.032"/>
</g>
<!-- ../data/raw/school_census_context_Jan21_Hard_Coded.xlsx.dvc -->
<g id="node31" class="node">
<title>../data/raw/school_census_context_Jan21_Hard_Coded.xlsx.dvc</title>
<ellipse fill="none" stroke="#000000" cx="6077.8678" cy="-306" rx="259.8113" ry="18"/>
<text text-anchor="middle" x="6077.8678" y="-301.8" font-family="Times,serif" font-size="14.00" fill="#000000">../data/raw/school_census_context_Jan21_Hard_Coded.xlsx.dvc</text>
</g>
<!-- ../data/raw/school_census_context_Jan21_Hard_Coded.xlsx.dvc&#45;&gt;census_data_to_csv -->
<g id="edge26" class="edge">
<title>../data/raw/school_census_context_Jan21_Hard_Coded.xlsx.dvc&#45;&gt;census_data_to_csv</title>
<path fill="none" stroke="#000000" d="M6197.6015,-289.9762C6299.118,-276.3903 6442.1349,-257.2505 6531.8739,-245.2408"/>
<polygon fill="#000000" stroke="#000000" points="6532.5593,-248.6804 6542.0066,-243.8848 6531.6307,-241.7423 6532.5593,-248.6804"/>
</g>
<!-- ../data/raw/Attendance_Oct17&#45;May18_to_Warwick.xlsx.dvc -->
<g id="node32" class="node">
<title>../data/raw/Attendance_Oct17&#45;May18_to_Warwick.xlsx.dvc</title>
<ellipse fill="none" stroke="#000000" cx="2774.8678" cy="-306" rx="244.7357" ry="18"/>
<text text-anchor="middle" x="2774.8678" y="-301.8" font-family="Times,serif" font-size="14.00" fill="#000000">../data/raw/Attendance_Oct17&#45;May18_to_Warwick.xlsx.dvc</text>
</g>
<!-- ../data/raw/Attendance_Oct17&#45;May18_to_Warwick.xlsx.dvc&#45;&gt;new_attendance_to_csv -->
<g id="edge27" class="edge">
<title>../data/raw/Attendance_Oct17&#45;May18_to_Warwick.xlsx.dvc&#45;&gt;new_attendance_to_csv</title>
<path fill="none" stroke="#000000" d="M2598.7651,-293.4586C2388.2605,-278.4671 2042.7729,-253.8627 1869.6723,-241.535"/>
<polygon fill="#000000" stroke="#000000" points="1869.7587,-238.0324 1859.5353,-240.8131 1869.2613,-245.0147 1869.7587,-238.0324"/>
</g>
<!-- canonicalize_census_data&#45;&gt;annotate_census_data -->
<g id="edge28" class="edge">
<title>canonicalize_census_data&#45;&gt;annotate_census_data</title>
<path fill="none" stroke="#000000" d="M7104.3945,-153.1353C7255.3305,-139.2738 7545.4885,-112.6267 7696.0113,-98.8032"/>
<polygon fill="#000000" stroke="#000000" points="7696.5244,-102.2708 7706.1624,-97.8709 7695.8842,-95.3002 7696.5244,-102.2708"/>
</g>
<!-- ../data/raw/FEB20_NEET_MI.xlsx.dvc -->
<g id="node34" class="node">
<title>../data/raw/FEB20_NEET_MI.xlsx.dvc</title>
<ellipse fill="none" stroke="#000000" cx="13395.8678" cy="-306" rx="162.6663" ry="18"/>
<text text-anchor="middle" x="13395.8678" y="-301.8" font-family="Times,serif" font-size="14.00" fill="#000000">../data/raw/FEB20_NEET_MI.xlsx.dvc</text>
</g>
<!-- ../data/raw/Attendance_Oct16&#45;May17_to_Warwick.xlsx.dvc -->
<g id="node35" class="node">
<title>../data/raw/Attendance_Oct16&#45;May17_to_Warwick.xlsx.dvc</title>
<ellipse fill="none" stroke="#000000" cx="244.8678" cy="-306" rx="244.7357" ry="18"/>
<text text-anchor="middle" x="244.8678" y="-301.8" font-family="Times,serif" font-size="14.00" fill="#000000">../data/raw/Attendance_Oct16&#45;May17_to_Warwick.xlsx.dvc</text>
</g>
<!-- ../data/raw/Attendance_Oct16&#45;May17_to_Warwick.xlsx.dvc&#45;&gt;new_attendance_to_csv -->
<g id="edge29" class="edge">
<title>../data/raw/Attendance_Oct16&#45;May17_to_Warwick.xlsx.dvc&#45;&gt;new_attendance_to_csv</title>
<path fill="none" stroke="#000000" d="M416.6381,-293.1696C444.131,-291.3056 472.2754,-289.5095 498.8678,-288 924.458,-263.8411 1431.1518,-245.2971 1651.865,-237.7242"/>
<polygon fill="#000000" stroke="#000000" points="1652.2831,-241.212 1662.1575,-237.3719 1652.0436,-234.2161 1652.2831,-241.212"/>
</g>
<!-- ../data/raw/school_census_attendance_Sum21_Hard_Coded.xlsx.dvc -->
<g id="node36" class="node">
<title>../data/raw/school_census_attendance_Sum21_Hard_Coded.xlsx.dvc</title>
<ellipse fill="none" stroke="#000000" cx="3881.8678" cy="-306" rx="277.7079" ry="18"/>
<text text-anchor="middle" x="3881.8678" y="-301.8" font-family="Times,serif" font-size="14.00" fill="#000000">../data/raw/school_census_attendance_Sum21_Hard_Coded.xlsx.dvc</text>
</g>
<!-- ../data/raw/school_census_attendance_Sum21_Hard_Coded.xlsx.dvc&#45;&gt;old_attendance_to_csv -->
<g id="edge30" class="edge">
<title>../data/raw/school_census_attendance_Sum21_Hard_Coded.xlsx.dvc&#45;&gt;old_attendance_to_csv</title>
<path fill="none" stroke="#000000" d="M3881.8678,-287.8314C3881.8678,-280.131 3881.8678,-270.9743 3881.8678,-262.4166"/>
<polygon fill="#000000" stroke="#000000" points="3885.3679,-262.4132 3881.8678,-252.4133 3878.3679,-262.4133 3885.3679,-262.4132"/>
</g>
<!-- canonicalize_school_info -->
<g id="node43" class="node">
<title>canonicalize_school_info</title>
<ellipse fill="none" stroke="#000000" cx="8184.8678" cy="-162" rx="109.9344" ry="18"/>
<text text-anchor="middle" x="8184.8678" y="-157.8" font-family="Times,serif" font-size="14.00" fill="#000000">canonicalize_school_info</text>
</g>
<!-- school_info_to_csv&#45;&gt;canonicalize_school_info -->
<g id="edge31" class="edge">
<title>school_info_to_csv&#45;&gt;canonicalize_school_info</title>
<path fill="none" stroke="#000000" d="M8184.8678,-215.8314C8184.8678,-208.131 8184.8678,-198.9743 8184.8678,-190.4166"/>
<polygon fill="#000000" stroke="#000000" points="8188.3679,-190.4132 8184.8678,-180.4133 8181.3679,-190.4133 8188.3679,-190.4132"/>
</g>
<!-- ../data/raw/NEET_MI_Feb20_with&#45;YPID_to_Warwick.xlsx.dvc -->
<g id="node38" class="node">
<title>../data/raw/NEET_MI_Feb20_with&#45;YPID_to_Warwick.xlsx.dvc</title>
<ellipse fill="none" stroke="#000000" cx="8677.8678" cy="-306" rx="259.8016" ry="18"/>
<text text-anchor="middle" x="8677.8678" y="-301.8" font-family="Times,serif" font-size="14.00" fill="#000000">../data/raw/NEET_MI_Feb20_with&#45;YPID_to_Warwick.xlsx.dvc</text>
</g>
<!-- ../data/raw/NEET_MI_Feb20_with&#45;YPID_to_Warwick.xlsx.dvc&#45;&gt;new_neet_to_csv -->
<g id="edge32" class="edge">
<title>../data/raw/NEET_MI_Feb20_with&#45;YPID_to_Warwick.xlsx.dvc&#45;&gt;new_neet_to_csv</title>
<path fill="none" stroke="#000000" d="M8864.5715,-293.4444C8891.8401,-291.6152 8919.5791,-289.757 8945.8678,-288 9210.7012,-270.3003 9524.1313,-249.4974 9672.2093,-239.6779"/>
<polygon fill="#000000" stroke="#000000" points="9672.8357,-243.1441 9682.5822,-238.9901 9672.3725,-236.1595 9672.8357,-243.1441"/>
</g>
<!-- ../data/raw/KS4_2017_Hard_Coded.csv.dvc -->
<g id="node39" class="node">
<title>../data/raw/KS4_2017_Hard_Coded.csv.dvc</title>
<ellipse fill="none" stroke="#000000" cx="11559.8678" cy="-234" rx="181.6969" ry="18"/>
<text text-anchor="middle" x="11559.8678" y="-229.8" font-family="Times,serif" font-size="14.00" fill="#000000">../data/raw/KS4_2017_Hard_Coded.csv.dvc</text>
</g>
<!-- ../data/raw/KS4_2017_Hard_Coded.csv.dvc&#45;&gt;canonicalize_ks4_data -->
<g id="edge33" class="edge">
<title>../data/raw/KS4_2017_Hard_Coded.csv.dvc&#45;&gt;canonicalize_ks4_data</title>
<path fill="none" stroke="#000000" d="M11430.6156,-221.3385C11410.2936,-219.4681 11389.5153,-217.6257 11369.8678,-216 11134.1618,-196.4969 10857.1231,-177.9943 10710.3456,-168.5397"/>
<polygon fill="#000000" stroke="#000000" points="10710.2091,-165.0238 10700.0051,-167.8747 10709.7598,-172.0094 10710.2091,-165.0238"/>
</g>
<!-- ../data/raw/FEB21_NEET_MI.xlsx.dvc -->
<g id="node40" class="node">
<title>../data/raw/FEB21_NEET_MI.xlsx.dvc</title>
<ellipse fill="none" stroke="#000000" cx="13739.8678" cy="-306" rx="162.6663" ry="18"/>
<text text-anchor="middle" x="13739.8678" y="-301.8" font-family="Times,serif" font-size="14.00" fill="#000000">../data/raw/FEB21_NEET_MI.xlsx.dvc</text>
</g>
<!-- ../data/raw/data_codes.csv.dvc -->
<g id="node41" class="node">
<title>../data/raw/data_codes.csv.dvc</title>
<ellipse fill="none" stroke="#000000" cx="14049.8678" cy="-306" rx="129.0347" ry="18"/>
<text text-anchor="middle" x="14049.8678" y="-301.8" font-family="Times,serif" font-size="14.00" fill="#000000">../data/raw/data_codes.csv.dvc</text>
</g>
<!-- canonicalize_neet_data&#45;&gt;annotate_neet_data -->
<g id="edge34" class="edge">
<title>canonicalize_neet_data&#45;&gt;annotate_neet_data</title>
<path fill="none" stroke="#000000" d="M9010.3806,-149.9488C8927.9709,-136.7925 8796.6417,-115.8264 8713.1467,-102.4969"/>
<polygon fill="#000000" stroke="#000000" points="8713.6348,-99.0305 8703.208,-100.9102 8712.5312,-105.943 8713.6348,-99.0305"/>
</g>
<!-- canonicalize_school_info&#45;&gt;annotate_attendance_data -->
<g id="edge35" class="edge">
<title>canonicalize_school_info&#45;&gt;annotate_attendance_data</title>
<path fill="none" stroke="#000000" d="M8077.838,-157.8835C7751.6082,-145.3362 6771.2863,-107.6315 6430.8652,-94.5384"/>
<polygon fill="#000000" stroke="#000000" points="6430.864,-91.0358 6420.7369,-94.1488 6430.5949,-98.0306 6430.864,-91.0358"/>
</g>
<!-- canonicalize_school_info&#45;&gt;annotate_census_data -->
<g id="edge36" class="edge">
<title>canonicalize_school_info&#45;&gt;annotate_census_data</title>
<path fill="none" stroke="#000000" d="M8111.4086,-148.5418C8042.8012,-135.9725 7940.7094,-117.2687 7870.4839,-104.403"/>
<polygon fill="#000000" stroke="#000000" points="7870.8289,-100.908 7860.3618,-102.5485 7869.5674,-107.7934 7870.8289,-100.908"/>
</g>
<!-- canonicalize_school_info&#45;&gt;annotate_neet_data -->
<g id="edge37" class="edge">
<title>canonicalize_school_info&#45;&gt;annotate_neet_data</title>
<path fill="none" stroke="#000000" d="M8263.5092,-149.4174C8345.86,-136.2413 8474.4178,-115.672 8556.6207,-102.5195"/>
<polygon fill="#000000" stroke="#000000" points="8557.3365,-105.9496 8566.6579,-100.9136 8556.2305,-99.0375 8557.3365,-105.9496"/>
</g>
<!-- annotate_ks4_data -->
<g id="node44" class="node">
<title>annotate_ks4_data</title>
<ellipse fill="none" stroke="#000000" cx="9843.8678" cy="-90" rx="82.809" ry="18"/>
<text text-anchor="middle" x="9843.8678" y="-85.8" font-family="Times,serif" font-size="14.00" fill="#000000">annotate_ks4_data</text>
</g>
<!-- canonicalize_school_info&#45;&gt;annotate_ks4_data -->
<g id="edge38" class="edge">
<title>canonicalize_school_info&#45;&gt;annotate_ks4_data</title>
<path fill="none" stroke="#000000" d="M8291.1695,-157.3865C8595.4615,-144.1804 9466.3295,-106.385 9751.9285,-93.9901"/>
<polygon fill="#000000" stroke="#000000" points="9752.4076,-97.4727 9762.2464,-93.5423 9752.104,-90.4793 9752.4076,-97.4727"/>
</g>
<!-- merge_ks4_data -->
<g id="node51" class="node">
<title>merge_ks4_data</title>
<ellipse fill="none" stroke="#000000" cx="9843.8678" cy="-18" rx="74.1412" ry="18"/>
<text text-anchor="middle" x="9843.8678" y="-13.8" font-family="Times,serif" font-size="14.00" fill="#000000">merge_ks4_data</text>
</g>
<!-- annotate_ks4_data&#45;&gt;merge_ks4_data -->
<g id="edge39" class="edge">
<title>annotate_ks4_data&#45;&gt;merge_ks4_data</title>
<path fill="none" stroke="#000000" d="M9843.8678,-71.8314C9843.8678,-64.131 9843.8678,-54.9743 9843.8678,-46.4166"/>
<polygon fill="#000000" stroke="#000000" points="9847.3679,-46.4132 9843.8678,-36.4133 9840.3679,-46.4133 9847.3679,-46.4132"/>
</g>
<!-- old_attendance_to_csv&#45;&gt;canonicalize_attendance_data -->
<g id="edge40" class="edge">
<title>old_attendance_to_csv&#45;&gt;canonicalize_attendance_data</title>
<path fill="none" stroke="#000000" d="M3881.8678,-215.8314C3881.8678,-208.131 3881.8678,-198.9743 3881.8678,-190.4166"/>
<polygon fill="#000000" stroke="#000000" points="3885.3679,-190.4132 3881.8678,-180.4133 3878.3679,-190.4133 3885.3679,-190.4132"/>
</g>
<!-- canonicalize_ks4_data&#45;&gt;annotate_ks4_data -->
<g id="edge41" class="edge">
<title>canonicalize_ks4_data&#45;&gt;annotate_ks4_data</title>
<path fill="none" stroke="#000000" d="M10519.342,-153.7407C10372.1711,-139.853 10076.9017,-111.9901 9930.4003,-98.1656"/>
<polygon fill="#000000" stroke="#000000" points="9930.3979,-94.6499 9920.1133,-97.1949 9929.7403,-101.6189 9930.3979,-94.6499"/>
</g>
<!-- ../data/raw/Attendance_Oct15&#45;May16_to_Warwick.xlsx.dvc -->
<g id="node47" class="node">
<title>../data/raw/Attendance_Oct15&#45;May16_to_Warwick.xlsx.dvc</title>
<ellipse fill="none" stroke="#000000" cx="752.8678" cy="-306" rx="244.7357" ry="18"/>
<text text-anchor="middle" x="752.8678" y="-301.8" font-family="Times,serif" font-size="14.00" fill="#000000">../data/raw/Attendance_Oct15&#45;May16_to_Warwick.xlsx.dvc</text>
</g>
<!-- ../data/raw/Attendance_Oct15&#45;May16_to_Warwick.xlsx.dvc&#45;&gt;new_attendance_to_csv -->
<g id="edge42" class="edge">
<title>../data/raw/Attendance_Oct15&#45;May16_to_Warwick.xlsx.dvc&#45;&gt;new_attendance_to_csv</title>
<path fill="none" stroke="#000000" d="M928.9706,-293.4586C1139.4751,-278.4671 1484.9627,-253.8627 1658.0634,-241.535"/>
<polygon fill="#000000" stroke="#000000" points="1658.4743,-245.0147 1668.2004,-240.8131 1657.977,-238.0324 1658.4743,-245.0147"/>
</g>
<!-- ../data/raw/school_census_context_Jan22_Hard_Coded.xlsx.dvc -->
<g id="node48" class="node">
<title>../data/raw/school_census_context_Jan22_Hard_Coded.xlsx.dvc</title>
<ellipse fill="none" stroke="#000000" cx="6615.8678" cy="-306" rx="259.8113" ry="18"/>
<text text-anchor="middle" x="6615.8678" y="-301.8" font-family="Times,serif" font-size="14.00" fill="#000000">../data/raw/school_census_context_Jan22_Hard_Coded.xlsx.dvc</text>
</g>
<!-- ../data/raw/school_census_context_Jan22_Hard_Coded.xlsx.dvc&#45;&gt;census_data_to_csv -->
<g id="edge43" class="edge">
<title>../data/raw/school_census_context_Jan22_Hard_Coded.xlsx.dvc&#45;&gt;census_data_to_csv</title>
<path fill="none" stroke="#000000" d="M6615.8678,-287.8314C6615.8678,-280.131 6615.8678,-270.9743 6615.8678,-262.4166"/>
<polygon fill="#000000" stroke="#000000" points="6619.3679,-262.4132 6615.8678,-252.4133 6612.3679,-262.4133 6619.3679,-262.4132"/>
</g>
<!-- ../data/raw/Attendance_Oct14&#45;May15_to_Warwick.xlsx.dvc -->
<g id="node49" class="node">
<title>../data/raw/Attendance_Oct14&#45;May15_to_Warwick.xlsx.dvc</title>
<ellipse fill="none" stroke="#000000" cx="1260.8678" cy="-306" rx="244.7357" ry="18"/>
<text text-anchor="middle" x="1260.8678" y="-301.8" font-family="Times,serif" font-size="14.00" fill="#000000">../data/raw/Attendance_Oct14&#45;May15_to_Warwick.xlsx.dvc</text>
</g>
<!-- ../data/raw/Attendance_Oct14&#45;May15_to_Warwick.xlsx.dvc&#45;&gt;new_attendance_to_csv -->
<g id="edge44" class="edge">
<title>../data/raw/Attendance_Oct14&#45;May15_to_Warwick.xlsx.dvc&#45;&gt;new_attendance_to_csv</title>
<path fill="none" stroke="#000000" d="M1372.8122,-289.9762C1463.4983,-276.9952 1589.6066,-258.9439 1673.8423,-246.8864"/>
<polygon fill="#000000" stroke="#000000" points="1674.4991,-250.3281 1683.9022,-245.4464 1673.5071,-243.3987 1674.4991,-250.3281"/>
</g>
<!-- ../data/raw/school_census_attendance_Spr21_Hard_Coded.xlsx.dvc -->
<g id="node50" class="node">
<title>../data/raw/school_census_attendance_Spr21_Hard_Coded.xlsx.dvc</title>
<ellipse fill="none" stroke="#000000" cx="4450.8678" cy="-306" rx="273.1133" ry="18"/>
<text text-anchor="middle" x="4450.8678" y="-301.8" font-family="Times,serif" font-size="14.00" fill="#000000">../data/raw/school_census_attendance_Spr21_Hard_Coded.xlsx.dvc</text>
</g>
<!-- ../data/raw/school_census_attendance_Spr21_Hard_Coded.xlsx.dvc&#45;&gt;old_attendance_to_csv -->
<g id="edge45" class="edge">
<title>../data/raw/school_census_attendance_Spr21_Hard_Coded.xlsx.dvc&#45;&gt;old_attendance_to_csv</title>
<path fill="none" stroke="#000000" d="M4324.5883,-290.0209C4218.2893,-276.57 4068.7811,-257.6516 3973.6072,-245.6085"/>
<polygon fill="#000000" stroke="#000000" points="3973.7851,-242.1032 3963.4248,-244.32 3972.9062,-249.0478 3973.7851,-242.1032"/>
</g>
</g>
</svg>
